<?xml version="1.0" encoding="utf-8"?>
<!-- Generator: Adobe Illustrator 28.1.0, SVG Export Plug-In . SVG Version: 6.00 Build 0)  -->
<svg version="1.1" id="obj" xmlns="http://www.w3.org/2000/svg" xmlns:xlink="http://www.w3.org/1999/xlink" x="0px" y="0px"
	 viewBox="0 0 256 256" style="enable-background:new 0 0 256 256;" xml:space="preserve">
<style type="text/css">
	.st0{fill:#FFFFFF;}
	.st1{fill:#f25296;}
</style>
<circle class="st0" cx="128" cy="128" r="128"/>
<g>
	<path class="st1" d="M181.56,79.33c0-4.8-0.64-8.02-1.83-10.09c-4.11-11.16-14.81-19.13-27.39-19.13
		c-10.17,0-19.11,5.2-24.35,13.08c-5.23-7.88-14.18-13.08-24.35-13.08c-12.58,0-23.28,7.97-27.39,19.13
		c-1.18,2.06-1.83,5.29-1.83,10.09c0,4.34,0.97,8.45,2.67,12.15C87.9,117.78,128,144.25,128,144.25s40.1-26.47,50.89-52.77
		C180.59,87.78,181.56,83.67,181.56,79.33z"/>
	<g>
		<path class="st1" d="M93.84,171.27c-0.1,0.34-0.39,0.58-0.73,0.73c-1.8,5.84-4.19,11.44-6.96,15.68c1.9,1.12,4.24,2.58,5.79,3.75
			l-2.78,4.63c-1.61-1.27-4.04-2.87-5.94-4.04c-4.38,5.84-10.03,10.47-16.94,13.88c-0.73-1.12-2.53-2.87-3.8-3.65
			c6.62-3.02,12.22-7.4,16.55-12.76c-3.12-1.8-6.33-3.41-9.49-4.58l2.68-3.8c3.12,1.12,6.43,2.58,9.64,4.28
			c2.24-3.46,3.94-7.16,5.21-11.15H72.13c-2.97,4.82-6.82,9.54-10.86,12.81c-0.88-0.88-2.78-2.34-3.94-3.07
			c6.62-4.92,12.17-13.29,15.09-21.52l6.28,1.46c-0.19,0.49-0.68,0.68-1.46,0.68c-0.58,1.46-1.61,3.56-2.43,5.16h14.51l0.88-0.24
			L93.84,171.27z"/>
		<path class="st1" d="M144.97,166.74c-0.24,0.24-0.58,0.44-1.07,0.44c-0.15,0-0.29,0-0.49-0.05c-3.75,3.75-8.76,7.94-13.44,11.34
			c0.44,0.19,1.02,0.44,1.31,0.54c-0.1,0.39-0.54,0.73-1.17,0.83v25.71h-5.11v-23.91c-4.77,3.31-11.35,7.06-17.29,9.98
			c-0.68-1.12-1.95-2.82-2.92-3.75c13-5.89,27.56-16.12,35.2-24.83L144.97,166.74z"/>
		<path class="st1" d="M156.22,168.64h30.67l0.34-0.19l4.43,3.21c-0.19,0.24-0.44,0.44-0.73,0.58
			c-4.19,18.21-12.51,27.36-27.46,33.11c-0.68-1.17-2.09-3.02-3.07-4.04c13.68-5.02,21.86-13.78,24.69-28h-28.87V168.64z
			 M193.42,160.22c2.92,0,5.26,2.39,5.26,5.31c0,2.92-2.34,5.26-5.26,5.26c-2.97,0-5.31-2.34-5.31-5.26
			C188.11,162.5,190.54,160.22,193.42,160.22z M196.92,165.52c0-2-1.56-3.6-3.5-3.6c-2,0-3.56,1.61-3.56,3.6
			c0,1.95,1.56,3.56,3.56,3.56C195.46,169.08,196.92,167.37,196.92,165.52z"/>
	</g>
</g>
</svg>
